<?xml version="1.0" encoding="iso-8859-1"?>
<!-- Generator: Adobe Illustrator 19.0.0, SVG Export Plug-In . SVG Version: 6.00 Build 0)  -->
<svg version="1.1" id="Layer_1" xmlns="http://www.w3.org/2000/svg" xmlns:xlink="http://www.w3.org/1999/xlink" x="0px" y="0px"
	 viewBox="0 0 512 512" style="enable-background:new 0 0 512 512;" xml:space="preserve">
<ellipse style="fill:#78B86D;" cx="208" cy="144" rx="67.2" ry="48"/>
<path style="fill:#B4DE7C;" d="M291.354,48H208h-83.354c-8.306,29.256-31.39,52.338-60.646,60.645v70.707
	c29.259,8.306,52.35,31.387,60.656,60.646H208h83.354c8.309-29.256,31.39-52.339,60.646-60.646v-70.707
	C322.744,100.338,299.662,77.256,291.354,48z M208,192c-37.112,0-67.2-21.49-67.2-48c0-26.509,30.088-48,67.2-48
	s67.2,21.491,67.2,48C275.2,170.51,245.112,192,208,192z"/>
<path style="fill:#78B86D;" d="M376,0h-64H208H104H40C26.747,0,16,10.746,16,24v64v112v64c0,13.253,10.747,24,24,24h64h0.032H208h80
	v-24c0-8.322,1.184-16.366,3.354-24H208h-83.344C116.35,210.741,93.259,187.659,64,179.354v-70.709
	c29.256-8.307,52.341-31.389,60.646-60.645H208h83.354c8.309,29.256,31.39,52.338,60.646,60.645v70.707
	c7.634-2.166,15.678-3.354,24-3.354c8.318,0,16.366,1.186,24,3.354V88V24C400,10.746,389.253,0,376,0z"/>
<path style="fill:#FFB655;" d="M336,304h-48h-8c-13.256,0-24,10.746-24,24v160c0,13.253,10.744,24,24,24h192
	c13.253,0,24-10.747,24-24V328c0-13.254-10.747-24-24-24h-8h-48H336z"/>
<path style="fill:#A9A8AE;" d="M336,304v-40c0-22.056,17.944-40,40-40s40,17.944,40,40v40h48v-40c0-40.203-27.109-74.17-64-84.646
	c-7.634-2.166-15.682-3.354-24-3.354c-8.322,0-16.366,1.186-24,3.354c-29.256,8.307-52.338,31.39-60.646,60.646
	c-2.168,7.634-3.354,15.678-3.354,24v24v16H336z"/>
<path style="fill:#A8DA64;" d="M140.8,144c0-26.509,30.088-48,67.2-48V48h-83.354c-8.306,29.256-31.39,52.338-60.646,60.645v70.707
	c29.259,8.306,52.35,31.387,60.656,60.646H208v-48C170.888,192,140.8,170.51,140.8,144z"/>
<g>
	<path style="fill:#69A15F;" d="M124.656,240C116.35,210.741,93.259,187.659,64,179.354v-70.709
		c29.256-8.307,52.341-31.389,60.646-60.645H208V0H104H40C26.747,0,16,10.746,16,24v64v112v64c0,13.253,10.747,24,24,24h64h0.032
		H208v-48H124.656z"/>
	<path style="fill:#69A15F;" d="M140.8,144c0,26.51,30.088,48,67.2,48V96C170.888,96,140.8,117.491,140.8,144z"/>
</g>
<path style="fill:#FF9811;" d="M336,304h-48h-8c-13.256,0-24,10.746-24,24v160c0,13.253,10.744,24,24,24h96V304H336z"/>
<g>
</g>
<g>
</g>
<g>
</g>
<g>
</g>
<g>
</g>
<g>
</g>
<g>
</g>
<g>
</g>
<g>
</g>
<g>
</g>
<g>
</g>
<g>
</g>
<g>
</g>
<g>
</g>
<g>
</g>
</svg>
