<?xml version="1.0" encoding="iso-8859-1"?>
<!-- Generator: Adobe Illustrator 16.0.0, SVG Export Plug-In . SVG Version: 6.00 Build 0)  -->
<!DOCTYPE svg PUBLIC "-//W3C//DTD SVG 1.1//EN" "http://www.w3.org/Graphics/SVG/1.1/DTD/svg11.dtd">
<svg xmlns="http://www.w3.org/2000/svg" xmlns:xlink="http://www.w3.org/1999/xlink" version="1.1" id="Capa_1" x="0px" y="0px" width="512px" height="512px" viewBox="0 0 47.518 47.518" style="enable-background:new 0 0 47.518 47.518;" xml:space="preserve">
<g>
	<g id="Layer_64_1_">
		<g>
			<path d="M0,42.375h18.622V14.44H0V42.375z M9.704,40.975c-0.496,0-0.897-0.404-0.897-0.898c0-0.495,0.401-0.897,0.897-0.897     c0.496,0,0.898,0.402,0.898,0.897C10.603,40.57,10.2,40.975,9.704,40.975z M2.693,17.132h13.238l-0.001,20.61H2.693V17.132z" fill="#00BCD4"/>
			<polygon points="9.21,7.771 39.052,7.771 39.052,19.881 41.682,19.881 41.682,5.143 6.581,5.143 6.581,13.246 9.21,13.246    " fill="#00BCD4"/>
			<rect x="19.822" y="25.658" width="13.829" height="2.627" fill="#00BCD4"/>
			<path d="M35.011,20.901v21.039h12.507V20.901H35.011z M41.542,21.772c0.167,0,0.302,0.135,0.302,0.302     c0,0.166-0.135,0.303-0.302,0.303s-0.302-0.137-0.302-0.303C41.24,21.906,41.375,21.772,41.542,21.772z M39.742,22.781h3.599     v0.289h-3.599V22.781z M41.424,41.029c-0.398,0-0.721-0.322-0.721-0.722c0-0.397,0.322-0.721,0.721-0.721     c0.396,0,0.721,0.323,0.721,0.721C42.145,40.707,41.822,41.029,41.424,41.029z M45.511,38.553     c-3.248,0.018-6.883,0.03-8.493,0.018V24.105l8.493-0.003V38.553z" fill="#00BCD4"/>
			<polygon points="23.628,29.361 19.822,29.361 19.822,30.956 29.092,30.956 29.092,31.652 19.822,31.652 19.822,33.094      33.652,33.094 33.652,29.361 24.629,29.361    " fill="#00BCD4"/>
		</g>
	</g>
</g>
<g>
</g>
<g>
</g>
<g>
</g>
<g>
</g>
<g>
</g>
<g>
</g>
<g>
</g>
<g>
</g>
<g>
</g>
<g>
</g>
<g>
</g>
<g>
</g>
<g>
</g>
<g>
</g>
<g>
</g>
</svg>
